<svg width="104" height="104" viewBox="0 0 104 104" fill="none" xmlns="http://www.w3.org/2000/svg">
<g filter="url(#filter0_d_1002_3775)">
<circle cx="52" cy="52" r="32" fill="url(#paint0_radial_1002_3775)" shape-rendering="crispEdges"/>
</g>
<path d="M67.2055 61.4229C67.2716 61.9297 67.1172 62.3704 66.7427 62.7449L62.347 67.1075C62.1487 67.3278 61.8898 67.5153 61.5703 67.6693C61.2509 67.8236 60.9369 67.9228 60.6286 67.9668C60.6065 67.9668 60.5403 67.9725 60.43 67.9835C60.32 67.9944 60.1768 68 60.0005 68C59.5818 68 58.9042 67.9284 57.9678 67.7852C57.0313 67.6419 55.8856 67.2893 54.5306 66.7275C53.1753 66.1657 51.6385 65.3228 49.9199 64.1992C48.2014 63.0756 46.3725 61.5331 44.4335 59.572C42.8911 58.0517 41.6132 56.5975 40.5996 55.2094C39.5861 53.8212 38.7708 52.5377 38.1539 51.3589C37.5369 50.1801 37.0742 49.1115 36.7657 48.153C36.4572 47.1945 36.2479 46.3683 36.1377 45.6742C36.0275 44.9801 35.9835 44.4348 36.0055 44.0382C36.0275 43.6416 36.0386 43.4212 36.0386 43.3772C36.0826 43.0687 36.1818 42.7547 36.336 42.4352C36.4903 42.1157 36.6775 41.8568 36.8979 41.6585L41.2936 37.2628C41.6021 36.9543 41.9546 36.8 42.3513 36.8C42.6377 36.8 42.8911 36.8827 43.1114 37.0479C43.3318 37.2132 43.5191 37.417 43.6733 37.6594L47.2097 44.3687C47.408 44.7212 47.4631 45.1068 47.375 45.5255C47.2868 45.9441 47.0996 46.2966 46.8131 46.5831L45.1936 48.2026C45.1496 48.2466 45.111 48.3182 45.0779 48.4174C45.0449 48.5166 45.0284 48.5992 45.0284 48.6653C45.1165 49.128 45.3148 49.6568 45.6233 50.2517C45.8877 50.7805 46.2953 51.425 46.8462 52.1852C47.397 52.9454 48.1792 53.8212 49.1928 54.8127C50.1843 55.8263 51.0656 56.6139 51.8368 57.1759C52.6079 57.7376 53.2526 58.1509 53.7704 58.4153C54.2882 58.6797 54.6848 58.8394 54.9601 58.8943L55.3732 58.977C55.4172 58.977 55.489 58.9604 55.588 58.9274C55.6872 58.8943 55.7588 58.8558 55.8029 58.8117L57.6868 56.8948C58.0836 56.5423 58.5461 56.366 59.075 56.366C59.4496 56.366 59.7469 56.4321 59.9673 56.5643H60.0003L66.379 60.3321C66.8419 60.6188 67.1173 60.9822 67.2055 61.4229Z" fill="white"/>
<defs>
<filter id="filter0_d_1002_3775" x="0" y="0" width="104" height="104" filterUnits="userSpaceOnUse" color-interpolation-filters="sRGB">
<feFlood flood-opacity="0" result="BackgroundImageFix"/>
<feColorMatrix in="SourceAlpha" type="matrix" values="0 0 0 0 0 0 0 0 0 0 0 0 0 0 0 0 0 0 127 0" result="hardAlpha"/>
<feOffset/>
<feGaussianBlur stdDeviation="10"/>
<feComposite in2="hardAlpha" operator="out"/>
<feColorMatrix type="matrix" values="0 0 0 0 0.490196 0 0 0 0 0.305882 0 0 0 0 0.141176 0 0 0 1 0"/>
<feBlend mode="normal" in2="BackgroundImageFix" result="effect1_dropShadow_1002_3775"/>
<feBlend mode="normal" in="SourceGraphic" in2="effect1_dropShadow_1002_3775" result="shape"/>
</filter>
<radialGradient id="paint0_radial_1002_3775" cx="0" cy="0" r="1" gradientUnits="userSpaceOnUse" gradientTransform="translate(52 52) rotate(90) scale(32)">
<stop stop-color="#673800"/>
<stop offset="1" stop-color="#673800" stop-opacity="0.94"/>
</radialGradient>
</defs>
</svg>
