<svg width="104" height="104" viewBox="0 0 104 104" fill="none" xmlns="http://www.w3.org/2000/svg">
<path d="M41.3023 41.3023C41.4576 41.1467 41.642 41.0232 41.8451 40.9389C42.0482 40.8547 42.2658 40.8113 42.4857 40.8113C42.7055 40.8113 42.9232 40.8547 43.1263 40.9389C43.3294 41.0232 43.5138 41.1467 43.6691 41.3023L52.5143 50.1509L61.3595 41.3023C61.5149 41.1469 61.6994 41.0236 61.9024 40.9395C62.1054 40.8554 62.3231 40.8122 62.5428 40.8122C62.7626 40.8122 62.9802 40.8554 63.1833 40.9395C63.3863 41.0236 63.5708 41.1469 63.7262 41.3023C63.8816 41.4577 64.0049 41.6422 64.089 41.8453C64.1731 42.0483 64.2164 42.2659 64.2164 42.4857C64.2164 42.7055 64.1731 42.9231 64.089 43.1261C64.0049 43.3292 63.8816 43.5137 63.7262 43.6691L54.8777 52.5143L63.7262 61.3595C63.8816 61.5149 64.0049 61.6994 64.089 61.9024C64.1731 62.1054 64.2164 62.3231 64.2164 62.5428C64.2164 62.7626 64.1731 62.9802 64.089 63.1833C64.0049 63.3863 63.8816 63.5708 63.7262 63.7262C63.5708 63.8816 63.3863 64.0049 63.1833 64.089C62.9802 64.1731 62.7626 64.2164 62.5428 64.2164C62.3231 64.2164 62.1054 64.1731 61.9024 64.089C61.6994 64.0049 61.5149 63.8816 61.3595 63.7262L52.5143 54.8777L43.6691 63.7262C43.5137 63.8816 43.3292 64.0049 43.1261 64.089C42.9231 64.1731 42.7055 64.2164 42.4857 64.2164C42.2659 64.2164 42.0483 64.1731 41.8453 64.089C41.6422 64.0049 41.4577 63.8816 41.3023 63.7262C41.1469 63.5708 41.0236 63.3863 40.9395 63.1833C40.8554 62.9802 40.8122 62.7626 40.8122 62.5428C40.8122 62.3231 40.8554 62.1054 40.9395 61.9024C41.0236 61.6994 41.1469 61.5149 41.3023 61.3595L50.1509 52.5143L41.3023 43.6691C41.1467 43.5138 41.0232 43.3294 40.9389 43.1263C40.8547 42.9232 40.8113 42.7055 40.8113 42.4857C40.8113 42.2658 40.8547 42.0482 40.9389 41.8451C41.0232 41.642 41.1467 41.4576 41.3023 41.3023Z" fill="white"/>
<g filter="url(#filter0_d_1006_3794)">
<circle cx="52" cy="52" r="32" fill="url(#paint0_radial_1006_3794)" shape-rendering="crispEdges"/>
</g>
<defs>
<filter id="filter0_d_1006_3794" x="0" y="0" width="104" height="104" filterUnits="userSpaceOnUse" color-interpolation-filters="sRGB">
<feFlood flood-opacity="0" result="BackgroundImageFix"/>
<feColorMatrix in="SourceAlpha" type="matrix" values="0 0 0 0 0 0 0 0 0 0 0 0 0 0 0 0 0 0 127 0" result="hardAlpha"/>
<feOffset/>
<feGaussianBlur stdDeviation="10"/>
<feComposite in2="hardAlpha" operator="out"/>
<feColorMatrix type="matrix" values="0 0 0 0 0 0 0 0 0 0 0 0 0 0 0 0 0 0 0.28 0"/>
<feBlend mode="normal" in2="BackgroundImageFix" result="effect1_dropShadow_1006_3794"/>
<feBlend mode="normal" in="SourceGraphic" in2="effect1_dropShadow_1006_3794" result="shape"/>
</filter>
<radialGradient id="paint0_radial_1006_3794" cx="0" cy="0" r="1" gradientUnits="userSpaceOnUse" gradientTransform="translate(52 52) rotate(90) scale(32)">
<stop stop-color="#E4E4E4" stop-opacity="0.35"/>
<stop offset="1" stop-color="#E6E7E9"/>
</radialGradient>
</defs>
</svg>
