<?xml version="1.0" standalone="no"?>
<!DOCTYPE svg PUBLIC "-//W3C//DTD SVG 20010904//EN"
 "http://www.w3.org/TR/2001/REC-SVG-20010904/DTD/svg10.dtd">
<svg version="1.0" xmlns="http://www.w3.org/2000/svg"
 width="160.000000pt" height="160.000000pt" viewBox="0 0 160.000000 160.000000"
 preserveAspectRatio="xMidYMid meet">
<metadata>
Created by potrace 1.14, written by Peter Selinger 2001-2017
</metadata>
<g transform="translate(0.000000,160.000000) scale(0.100000,-0.100000)"
fill="#000000" stroke="none">
<path d="M1023 1238 c3 -9 1 -19 -6 -22 -9 -3 -9 -5 1 -5 18 -1 15 -19 -5 -24
-10 -3 -7 -4 8 -4 29 1 34 21 11 52 -10 15 -13 15 -9 3z"/>
<path d="M1071 1241 c-10 -6 -10 -10 -1 -16 13 -8 24 -1 19 14 -3 6 -10 7 -18
2z"/>
<path d="M600 1231 c0 -10 19 -25 25 -20 1 2 -3 10 -11 17 -8 7 -14 8 -14 3z"/>
<path d="M1111 1231 c-8 -5 -9 -11 -3 -15 5 -3 12 1 16 9 6 17 6 18 -13 6z"/>
<path d="M580 1222 c0 -6 -8 -9 -17 -6 -15 5 -16 4 -3 -5 16 -11 40 3 27 16
-4 3 -7 1 -7 -5z"/>
<path d="M980 1221 c0 -5 5 -13 10 -16 6 -3 10 -2 10 4 0 5 -4 13 -10 16 -5 3
-10 2 -10 -4z"/>
<path d="M503 1208 c7 -19 -15 -42 -29 -30 -4 4 -2 -1 5 -10 14 -19 31 -15 31
7 0 7 5 15 11 17 7 2 4 10 -7 18 -16 13 -17 13 -11 -2z"/>
<path d="M660 1204 c8 -10 15 -20 16 -22 1 -2 5 1 8 7 4 5 -4 15 -16 22 -22
12 -22 11 -8 -7z"/>
<path d="M907 1193 c4 -10 8 -12 11 -5 2 7 8 12 13 12 6 0 8 -4 5 -9 -4 -5 3
-7 14 -4 31 8 24 19 -15 21 -29 2 -34 0 -28 -15z"/>
<path d="M622 1186 c10 -7 16 -16 13 -19 -3 -4 -2 -5 2 -2 3 3 12 -3 20 -13
13 -15 13 -15 4 4 -6 12 -7 24 -4 28 3 3 2 6 -3 7 -5 0 -18 2 -29 4 -19 3 -19
3 -3 -9z"/>
<path d="M778 1165 c-6 -13 -16 -22 -22 -18 -7 4 -7 2 1 -7 9 -9 15 -8 32 9
12 12 16 21 10 21 -5 0 -7 5 -4 10 3 6 4 10 0 10 -3 0 -10 -11 -17 -25z"/>
<path d="M827 1175 c-5 -11 0 -15 16 -15 12 0 18 4 12 8 -5 4 -13 11 -16 15
-4 4 -9 1 -12 -8z"/>
<path d="M1081 1182 c-1 -8 -6 -10 -13 -6 -8 5 -7 1 2 -10 15 -19 26 -7 17 17
-4 9 -6 9 -6 -1z"/>
<path d="M540 1165 c0 -8 6 -18 14 -21 19 -7 36 -56 30 -86 -3 -15 1 -12 13
12 10 19 23 35 30 35 6 0 15 4 20 9 5 5 3 6 -4 2 -7 -4 -13 -3 -13 3 0 5 6 12
13 14 7 3 5 6 -5 6 -10 1 -18 -3 -18 -7 0 -5 -7 -17 -15 -28 -15 -19 -16 -19
-14 1 3 31 -11 54 -28 48 -10 -4 -14 -2 -9 5 3 6 2 13 -4 17 -5 3 -10 -1 -10
-10z"/>
<path d="M693 1144 c0 -20 4 -30 8 -22 4 6 5 16 2 21 -3 5 4 6 16 2 23 -7 26
1 11 25 -8 12 -10 12 -10 1 0 -10 -3 -11 -13 -2 -11 8 -14 4 -14 -25z"/>
<path d="M950 1163 c0 -16 -2 -16 -10 -3 -8 11 -9 7 -5 -15 5 -29 5 -29 -6 -5
-7 15 -13 20 -16 13 -2 -7 2 -22 11 -34 15 -22 16 -22 21 -3 4 10 11 27 16 36
12 23 11 28 -1 28 -5 0 -10 -8 -10 -17z"/>
<path d="M1225 1170 c-3 -5 1 -10 10 -10 9 0 13 5 10 10 -3 6 -8 10 -10 10 -2
0 -7 -4 -10 -10z"/>
<path d="M421 1134 c-7 -9 -20 -13 -28 -10 -8 4 -11 1 -8 -5 4 -6 14 -8 24 -5
12 5 11 2 -3 -9 -18 -13 -18 -15 -3 -15 10 0 20 7 23 15 5 11 10 13 19 5 12
-10 25 -4 25 13 0 6 -3 7 -7 4 -3 -4 -11 0 -17 8 -9 12 -13 12 -25 -1z"/>
<path d="M848 1138 c-5 -12 -13 -15 -24 -11 -11 4 -15 2 -11 -4 9 -14 55 -14
64 0 3 5 1 7 -5 3 -6 -3 -12 2 -14 11 -3 17 -4 17 -10 1z"/>
<path d="M1145 1141 c-3 -5 -2 -12 3 -15 5 -3 9 1 9 9 0 17 -3 19 -12 6z"/>
<path d="M1207 1133 c-11 -11 -17 -13 -17 -5 0 7 -5 12 -11 12 -8 0 -8 -4 0
-13 12 -16 23 -85 15 -99 -3 -5 -12 -4 -20 3 -8 7 -14 7 -14 1 0 -5 7 -12 15
-16 17 -6 21 -40 3 -34 -6 2 -28 -14 -50 -36 -37 -40 -38 -40 -28 -12 6 17 20
36 30 43 21 15 27 33 10 33 -5 0 -10 -7 -10 -16 0 -9 -6 -14 -13 -11 -18 7
-47 -12 -30 -19 9 -4 9 -11 1 -29 -6 -14 -15 -22 -19 -19 -5 3 -9 -2 -9 -10 0
-9 -14 -23 -32 -32 l-31 -16 6 48 c4 28 3 43 -2 36 -7 -11 -9 -11 -14 1 -3 9
2 17 14 20 10 3 19 11 19 17 0 10 -3 10 -15 0 -12 -10 -15 -10 -15 1 0 12 -2
12 -9 1 -4 -8 -11 -13 -15 -13 -30 4 -39 0 -28 -11 10 -10 14 -10 21 0 5 9 11
5 20 -15 11 -24 10 -29 -11 -45 -13 -10 -29 -16 -36 -13 -8 3 -10 0 -6 -6 4
-7 -1 -9 -15 -4 -16 5 -20 3 -15 -9 6 -14 -5 -21 -28 -17 -4 0 -5 -5 -3 -12 8
-21 -9 -37 -33 -30 -12 3 -22 10 -22 15 0 5 -4 7 -9 4 -11 -7 -44 29 -46 52
-1 9 -6 25 -10 35 -4 11 -3 23 4 30 8 8 11 8 11 -2 0 -12 44 -61 55 -61 2 0 2
6 -1 14 -3 8 2 17 14 20 10 4 19 14 19 22 0 14 -2 15 -11 2 -13 -17 -46 -31
-46 -20 0 5 5 13 12 20 7 7 8 12 2 12 -6 0 -15 -5 -21 -11 -7 -7 -12 -6 -16 5
-4 10 4 23 23 36 18 13 27 26 24 35 -4 8 -11 12 -17 8 -7 -4 -8 1 -4 13 7 18
6 18 -6 2 -11 -13 -16 -15 -25 -6 -16 16 -15 31 1 22 6 -4 8 -3 4 1 -4 5 -14
10 -23 11 -12 2 -11 -3 4 -29 22 -38 22 -48 0 -70 -16 -16 -17 -16 -15 2 1 11
6 17 14 14 9 -4 11 0 7 12 -5 11 -10 13 -17 6 -17 -17 -17 -42 -1 -101 16 -55
38 -90 58 -90 6 -1 25 -7 41 -15 l30 -14 -30 6 c-28 5 -29 5 -10 -10 10 -8 24
-14 30 -13 5 2 7 1 3 -1 -5 -3 -1 -14 7 -26 22 -32 18 -44 -5 -14 -24 30 -120
101 -120 88 0 -5 -9 -7 -20 -4 -10 3 -19 8 -18 12 2 18 -4 28 -17 28 -8 0 -15
-7 -15 -16 0 -11 -3 -12 -11 -4 -20 20 -19 66 2 100 l21 33 -22 0 c-19 0 -20
-2 -10 -15 9 -11 10 -15 1 -15 -19 0 -38 24 -33 40 2 9 -2 7 -11 -5 -11 -15
-12 -22 -4 -27 9 -6 9 -8 0 -8 -7 0 -17 8 -22 18 -9 15 -10 15 -11 1 0 -19 23
-31 45 -23 16 7 19 -13 9 -54 -5 -18 -9 -20 -20 -11 -12 9 -12 15 -2 27 9 10
9 13 1 9 -6 -4 -14 -1 -16 5 -3 7 -6 4 -7 -7 -1 -12 -7 -5 -15 20 -7 22 -13
33 -14 25 -1 -13 -2 -13 -11 0 -8 12 -10 12 -15 -2 -4 -11 2 -28 15 -45 20
-26 20 -28 3 -34 -16 -5 -16 -7 4 -19 12 -8 19 -20 16 -29 -3 -11 1 -10 14 5
l18 20 43 -27 c34 -22 39 -28 25 -32 -13 -3 -10 -5 8 -6 14 0 48 -8 77 -16 57
-17 92 -53 91 -94 0 -19 -2 -22 -7 -9 -6 13 -11 11 -32 -17 -33 -45 -55 -53
-129 -51 -70 2 -81 -3 -49 -21 22 -11 22 -12 3 -13 -52 -4 -67 -8 -88 -27 -13
-13 -49 -25 -92 -33 -139 -24 -363 -95 -390 -123 -7 -7 -6 -8 1 -4 12 7 229
63 275 71 166 29 547 42 741 24 106 -9 252 -35 353 -62 48 -13 82 -19 78 -15
-16 16 -267 79 -381 95 -65 10 -123 22 -130 27 -18 14 -11 96 11 127 19 28 22
62 7 91 -7 13 -7 25 0 38 7 14 7 22 -2 27 -6 4 -8 3 -5 -2 3 -6 2 -16 -4 -24
-7 -12 -9 -9 -9 10 0 18 -3 21 -9 11 -6 -9 -11 -10 -15 -2 -4 6 5 22 19 35 14
13 22 26 18 28 -4 3 -3 4 3 2 7 -1 30 4 52 11 49 17 102 4 102 -25 0 -11 5
-22 10 -25 6 -3 10 1 10 11 0 13 6 15 28 10 43 -11 115 -14 100 -5 -10 6 -8 9
6 9 27 0 10 14 -19 16 -13 0 -23 -3 -22 -9 1 -5 -4 -12 -12 -15 -10 -3 -12 0
-7 13 4 13 2 16 -9 11 -8 -3 -15 -1 -15 3 0 5 -7 12 -16 15 -12 5 -15 2 -10
-10 4 -10 2 -14 -6 -11 -7 2 -12 10 -10 17 2 7 -5 9 -17 5 -11 -3 -23 0 -27 6
-4 8 -3 9 4 5 7 -4 12 -1 12 8 0 18 -16 21 -25 6 -3 -5 -13 -10 -21 -10 -12 0
-10 7 8 28 19 23 25 26 36 15 16 -16 36 -17 26 -2 -3 6 0 16 7 21 10 7 8 8 -9
5 -20 -5 -21 -3 -11 10 9 10 23 13 48 8 22 -3 31 -2 23 3 -10 7 -10 11 3 22
19 16 19 30 -1 30 -8 0 -13 -4 -10 -9 7 -10 -22 -37 -30 -28 -3 3 -2 18 3 34
6 17 6 41 1 61 -8 27 -6 38 8 53 21 24 14 25 -9 2z m-402 -133 c-3 -5 -10 -10
-16 -10 -5 0 -9 5 -9 10 0 6 7 10 16 10 8 0 12 -4 9 -10z m185 -125 c0 -8 -9
-15 -20 -15 -20 0 -26 11 -13 23 12 13 33 7 33 -8z m-413 -31 c-3 -3 -12 -4
-19 -1 -8 3 -5 6 6 6 11 1 17 -2 13 -5z m383 -7 c-14 -8 -27 -12 -30 -10 -7 6
23 23 40 23 8 0 4 -6 -10 -13z m-196 -56 c4 -5 -3 -7 -14 -4 -23 6 -26 13 -6
13 8 0 17 -4 20 -9z m236 -76 c11 -28 0 -64 -24 -85 -12 -9 -13 -15 -6 -20 7
-4 1 -14 -17 -25 l-28 -18 20 23 c11 12 19 25 19 29 -1 3 3 16 9 28 12 28 2
70 -22 82 -16 9 -18 7 -14 -17 3 -26 3 -26 -7 -4 -5 13 -20 33 -33 43 -22 20
-22 20 0 10 31 -15 38 -14 22 5 -11 13 -4 12 29 -5 24 -12 47 -33 52 -46z
m-113 -52 c-3 -10 -5 -4 -5 12 0 17 2 24 5 18 2 -7 2 -21 0 -30z m-32 -61
l-28 -27 24 31 c13 17 26 30 28 27 3 -2 -8 -16 -24 -31z m57 -3 c-18 -16 -32
-27 -32 -23 0 9 54 60 60 56 2 -2 -10 -16 -28 -33z m-187 -59 c-4 -7 3 -8 22
-4 19 4 25 3 18 -3 -5 -6 -31 -13 -58 -16 -41 -4 -45 -3 -30 8 10 7 21 11 25
9 5 -3 8 0 8 5 0 6 5 11 11 11 5 0 7 -5 4 -10z m185 -14 c0 -2 -7 -7 -16 -10
-8 -3 -12 -2 -9 4 6 10 25 14 25 6z"/>
<path d="M1240 1140 c0 -5 5 -10 11 -10 5 0 7 5 4 10 -3 6 -8 10 -11 10 -2 0
-4 -4 -4 -10z"/>
<path d="M998 1133 c6 -2 9 -9 6 -15 -4 -6 4 -9 17 -7 13 1 35 -3 49 -8 19 -8
27 -7 34 4 5 9 3 19 -4 26 -10 9 -12 8 -8 -3 4 -11 -1 -16 -14 -17 -16 -2 -17
1 -7 13 10 12 8 14 -7 11 -11 -1 -25 -6 -31 -10 -8 -5 -13 -4 -13 2 0 6 -8 11
-17 10 -11 0 -13 -3 -5 -6z"/>
<path d="M545 1120 c3 -5 11 -10 16 -10 6 0 7 5 4 10 -3 6 -11 10 -16 10 -6 0
-7 -4 -4 -10z"/>
<path d="M716 1121 c-4 -6 -4 -11 1 -12 4 0 -1 -4 -12 -9 -13 -6 -15 -9 -5 -9
24 -1 40 13 31 28 -6 9 -11 10 -15 2z"/>
<path d="M771 1107 c-1 -10 -5 -15 -11 -12 -5 3 -10 2 -10 -4 0 -5 13 -9 29
-9 28 1 36 18 16 35 -4 4 -5 2 -1 -4 4 -7 3 -13 -3 -13 -5 0 -12 6 -14 13 -3
7 -6 4 -6 -6z"/>
<path d="M1122 1108 c3 -7 13 -15 23 -17 17 -3 17 -2 3 13 -20 19 -31 21 -26
4z"/>
<path d="M1265 1090 c-15 -16 -16 -23 -6 -33 10 -10 12 -8 9 8 -2 14 2 19 14
17 12 -2 16 2 12 13 -8 19 -7 19 -29 -5z"/>
<path d="M478 1089 c17 -18 15 -29 -5 -29 -9 0 -13 -3 -10 -7 4 -3 1 -13 -6
-21 -10 -13 -9 -15 6 -9 10 4 21 7 23 7 2 0 4 7 4 16 0 8 4 13 9 9 5 -3 12 -1
16 5 7 11 -13 33 -35 38 -12 3 -13 1 -2 -9z"/>
<path d="M651 1092 c-1 -7 -7 -10 -13 -7 -7 4 -4 -1 6 -9 11 -9 25 -16 30 -16
8 0 7 3 0 8 -6 4 -14 14 -17 22 -4 10 -6 11 -6 2z"/>
<path d="M834 1091 c4 -5 0 -12 -6 -14 -10 -4 -9 -6 1 -6 8 -1 22 -8 32 -17
13 -12 19 -12 25 -3 4 7 3 10 -4 5 -6 -3 -13 -2 -16 3 -4 5 1 11 10 13 15 3
15 4 -1 18 -11 8 -16 10 -12 3 4 -6 3 -14 -3 -18 -5 -3 -10 1 -10 9 0 9 -5 16
-11 16 -5 0 -8 -4 -5 -9z"/>
<path d="M945 1090 c-3 -5 1 -10 9 -10 9 0 16 5 16 10 0 6 -4 10 -9 10 -6 0
-13 -4 -16 -10z"/>
<path d="M900 1070 c0 -11 4 -20 9 -20 17 0 19 15 5 28 -12 11 -14 9 -14 -8z"/>
<path d="M984 1069 c-3 -6 -2 -15 3 -20 5 -5 9 -1 10 11 2 22 -2 25 -13 9z"/>
<path d="M1096 1064 c-4 -9 -4 -19 -1 -22 3 -3 5 0 5 7 0 7 4 9 10 6 6 -3 7 1
4 9 -8 20 -10 20 -18 0z"/>
<path d="M1220 1066 c0 -9 5 -16 10 -16 6 0 10 4 10 9 0 6 -4 13 -10 16 -5 3
-10 -1 -10 -9z"/>
<path d="M543 1058 c-31 -15 -29 -30 2 -16 14 6 25 15 25 20 0 9 1 10 -27 -4z"/>
<path d="M1296 1044 c-4 -15 -5 -29 -1 -32 3 -3 5 2 5 11 0 8 7 23 16 31 13
14 13 16 1 16 -8 0 -18 -12 -21 -26z"/>
<path d="M630 1049 c0 -5 -4 -7 -10 -4 -5 3 -10 1 -10 -4 0 -6 7 -11 15 -11 8
0 15 7 15 15 0 8 -2 15 -5 15 -3 0 -5 -5 -5 -11z"/>
<path d="M951 1051 c-10 -6 -10 -10 -1 -16 13 -8 24 -1 19 14 -3 6 -10 7 -18
2z"/>
<path d="M650 1034 c0 -6 8 -18 18 -25 15 -13 16 -12 3 4 -12 15 -11 17 2 17
9 0 18 3 20 8 3 4 -6 7 -19 7 -13 0 -24 -5 -24 -11z"/>
<path d="M824 1034 c9 -6 12 -15 8 -20 -4 -4 1 -2 10 5 22 16 15 30 -13 28
-18 -1 -18 -3 -5 -13z"/>
<path d="M1130 1035 c0 -8 4 -15 8 -15 5 0 9 7 9 15 0 8 -4 15 -9 15 -4 0 -8
-7 -8 -15z"/>
<path d="M564 1007 c-1 -30 -1 -30 9 -9 6 14 7 26 1 32 -5 5 -9 -4 -10 -23z"/>
<path d="M878 1027 c-10 -8 -13 -18 -9 -26 9 -13 13 -9 24 22 7 20 7 20 -15 4z"/>
<path d="M1350 1031 c0 -5 -3 -17 -7 -27 -6 -15 -4 -15 14 2 20 19 21 34 2 34
-5 0 -9 -4 -9 -9z"/>
<path d="M715 1020 c3 -5 8 -10 11 -10 2 0 4 5 4 10 0 6 -5 10 -11 10 -5 0 -7
-4 -4 -10z"/>
<path d="M932 1014 c10 -10 20 -15 24 -12 3 4 -5 12 -18 18 -22 12 -22 12 -6
-6z"/>
<path d="M521 1004 c0 -11 3 -14 6 -6 3 7 2 16 -1 19 -3 4 -6 -2 -5 -13z"/>
<path d="M620 1010 c0 -5 -7 -7 -15 -4 -8 4 -15 2 -15 -4 0 -14 33 -8 38 6 2
7 1 12 -2 12 -3 0 -6 -4 -6 -10z"/>
<path d="M1060 1009 c0 -5 -4 -7 -10 -4 -5 3 -10 1 -10 -4 0 -6 9 -11 20 -11
13 0 18 5 14 15 -7 17 -14 20 -14 4z"/>
<path d="M495 1000 c3 -5 -1 -10 -9 -10 -9 0 -16 -4 -16 -10 0 -5 9 -10 20
-10 21 0 27 -15 10 -25 -5 -3 -10 -1 -10 6 0 7 -3 9 -6 6 -4 -3 -16 -2 -28 4
-13 7 -9 1 9 -14 22 -18 33 -22 43 -15 19 17 12 78 -10 78 -5 0 -6 -4 -3 -10z"/>
<path d="M910 996 c0 -8 -6 -17 -12 -19 -8 -4 -9 -6 -2 -6 18 -1 37 26 24 34
-5 3 -10 0 -10 -9z"/>
<path d="M537 994 c-4 -4 -7 -14 -7 -23 0 -11 3 -12 11 -4 6 6 10 16 7 23 -2
6 -7 8 -11 4z"/>
<path d="M635 989 c-4 -6 -5 -12 -2 -15 2 -3 7 2 10 11 7 17 1 20 -8 4z"/>
<path d="M1276 985 c-9 -25 -8 -32 11 -39 10 -4 14 -4 10 0 -4 4 2 13 13 21
11 8 20 19 20 25 0 7 -6 3 -14 -7 -13 -17 -14 -17 -23 -1 -9 17 -10 17 -17 1z"/>
<path d="M866 971 c-4 -7 -5 -15 -2 -18 9 -9 19 4 14 18 -4 11 -6 11 -12 0z"/>
<path d="M695 960 c-3 -5 -1 -10 4 -10 6 0 11 5 11 10 0 6 -2 10 -4 10 -3 0
-8 -4 -11 -10z"/>
<path d="M1037 961 c-17 -6 -16 -8 6 -18 23 -11 26 -10 24 8 -1 21 -3 21 -30
10z"/>
<path d="M1330 945 c-11 -14 -7 -19 13 -16 4 0 7 -3 7 -9 0 -5 7 -10 15 -10 8
0 15 -4 15 -10 0 -5 8 -6 17 -3 11 4 13 8 5 11 -10 3 -10 7 0 20 12 15 11 16
-4 3 -22 -16 -52 -7 -44 14 7 19 -8 19 -24 0z"/>
<path d="M905 940 c-3 -6 1 -7 9 -4 18 7 21 14 7 14 -6 0 -13 -4 -16 -10z"/>
<path d="M455 931 c6 -11 4 -13 -8 -8 -10 3 -17 2 -17 -2 0 -7 23 -21 35 -21
6 0 -1 30 -10 37 -4 5 -5 2 0 -6z"/>
<path d="M1217 923 c-3 -5 -2 -15 2 -22 5 -7 11 -9 14 -4 3 5 2 15 -2 22 -5 7
-11 9 -14 4z"/>
<path d="M1017 914 c-4 -4 -7 -14 -7 -23 0 -11 3 -12 11 -4 6 6 10 16 7 23 -2
6 -7 8 -11 4z"/>
<path d="M661 897 c-6 -8 -8 -17 -4 -20 10 -11 45 -8 38 3 -4 6 -11 7 -17 4
-7 -5 -9 -1 -5 9 8 20 3 22 -12 4z"/>
<path d="M1261 903 c-1 -6 4 -15 9 -18 6 -4 7 -11 4 -17 -4 -7 -2 -8 4 -4 7 4
12 14 12 22 0 8 -4 13 -9 10 -5 -4 -12 0 -14 6 -4 9 -6 10 -6 1z"/>
<path d="M771 873 c-1 -23 22 -32 34 -13 3 6 0 10 -9 10 -8 0 -17 6 -19 13 -3
6 -6 2 -6 -10z"/>
<path d="M842 861 c-1 -28 0 -29 17 -13 10 10 12 19 6 21 -5 2 -13 8 -16 13
-3 5 -6 -4 -7 -21z"/>
<path d="M816 853 c-6 -14 -5 -15 5 -6 7 7 10 15 7 18 -3 3 -9 -2 -12 -12z"/>
<path d="M1036 835 c-11 -8 -14 -15 -7 -15 7 0 9 -6 6 -12 -4 -7 1 -4 9 6 14
17 21 37 14 36 -2 0 -12 -7 -22 -15z"/>
<path d="M1346 841 c-4 -6 -4 -11 1 -12 4 0 15 -2 24 -4 26 -5 44 11 20 18
-12 3 -21 0 -21 -6 0 -8 -4 -7 -9 2 -6 9 -11 10 -15 2z"/>
<path d="M605 779 c-11 -4 -14 -8 -6 -8 11 -1 11 -4 1 -16 -10 -12 -10 -15 3
-15 9 0 19 9 22 21 8 26 5 29 -20 18z"/>
<path d="M1243 755 c-3 -9 -3 -19 1 -22 3 -4 6 1 6 11 0 9 5 14 10 11 6 -3 10
-1 10 4 0 17 -20 13 -27 -4z"/>
<path d="M665 750 c-3 -5 -2 -10 4 -10 5 0 13 5 16 10 3 6 2 10 -4 10 -5 0
-13 -4 -16 -10z"/>
</g>
</svg>
