<svg width="33" height="33" viewBox="0 0 33 33" fill="none" xmlns="http://www.w3.org/2000/svg">
<path d="M31.776 28.0162L18.482 15.6062C18.55 15.4702 18.652 15.3682 18.72 15.2322C20.862 11.4242 20.25 6.76623 17.156 3.60423C15.354 1.80223 12.872 0.782227 10.322 0.782227C7.70398 0.782227 5.28998 1.76823 3.45398 3.60423C-0.286023 7.31023 -0.354022 13.4982 3.38598 17.3742C5.28998 19.2102 7.73798 20.1962 10.22 20.1962C11.852 20.1962 13.484 19.7882 15.014 18.9382C15.15 18.8702 15.252 18.8022 15.388 18.7002L27.798 31.9942C28.308 32.5722 29.022 32.8782 29.804 32.8782H29.838C30.586 32.8782 31.3 32.5722 31.844 32.0622C32.388 31.5182 32.694 30.8042 32.66 30.0222C32.626 29.2402 32.32 28.5262 31.776 28.0162ZM14.164 17.4082C11.036 19.1762 7.15998 18.6662 4.60998 16.1502C1.54998 12.9542 1.58398 7.85423 4.67798 4.79423C6.17398 3.29823 8.17998 2.48223 10.322 2.48223C12.43 2.48223 14.47 3.33223 15.932 4.79423C18.448 7.37823 18.992 11.2542 17.224 14.3822C16.884 14.9942 16.476 15.5382 15.966 16.0482L15.864 16.1502C15.32 16.6602 14.776 17.0682 14.164 17.4082ZM30.62 30.8382C30.416 31.0422 30.11 31.1442 29.804 31.1782C29.498 31.1782 29.226 31.0422 29.022 30.8382L16.748 17.6802L17.088 17.3402L17.122 17.3062L17.462 16.9662L30.62 29.2402C30.858 29.4442 30.96 29.7162 30.96 30.0222C30.96 30.3282 30.858 30.6342 30.62 30.8382Z" fill="#7D4E24"/>
</svg>
