<svg width="32" height="32" viewBox="0 0 32 32" fill="none" xmlns="http://www.w3.org/2000/svg">
<path d="M31.2055 25.4229C31.2716 25.9297 31.1172 26.3704 30.7427 26.7449L26.347 31.1075C26.1487 31.3278 25.8898 31.5153 25.5703 31.6693C25.2509 31.8236 24.9369 31.9228 24.6286 31.9668C24.6065 31.9668 24.5403 31.9725 24.43 31.9835C24.32 31.9944 24.1768 32 24.0005 32C23.5818 32 22.9042 31.9284 21.9678 31.7852C21.0313 31.6419 19.8856 31.2893 18.5306 30.7275C17.1753 30.1657 15.6385 29.3228 13.9199 28.1992C12.2014 27.0756 10.3725 25.5331 8.43351 23.572C6.89114 22.0517 5.61318 20.5975 4.59962 19.2094C3.58606 17.8212 2.77081 16.5377 2.15386 15.3589C1.53686 14.1801 1.07415 13.1115 0.765677 12.153C0.457203 11.1945 0.247881 10.3683 0.137712 9.67419C0.0275423 8.98012 -0.0165254 8.43478 0.00550846 8.03817C0.0275423 7.64156 0.0385592 7.42122 0.0385592 7.37716C0.082627 7.06868 0.181779 6.7547 0.336016 6.43521C0.490253 6.11572 0.677541 5.85682 0.89788 5.65851L5.29363 1.26276C5.60211 0.954286 5.95465 0.800049 6.35126 0.800049C6.6377 0.800049 6.89109 0.882676 7.11143 1.04793C7.33177 1.21318 7.51905 1.417 7.67329 1.65937L11.2097 8.36868C11.408 8.72122 11.4631 9.10681 11.375 9.52546C11.2868 9.9441 11.0996 10.2966 10.8131 10.5831L9.19363 12.2026C9.14956 12.2466 9.111 12.3182 9.07795 12.4174C9.0449 12.5166 9.02837 12.5992 9.02837 12.6653C9.11651 13.128 9.31481 13.6568 9.62329 14.2517C9.88769 14.7805 10.2953 15.425 10.8462 16.1852C11.397 16.9454 12.1792 17.8212 13.1928 18.8127C14.1843 19.8263 15.0656 20.6139 15.8368 21.1759C16.6079 21.7376 17.2526 22.1509 17.7704 22.4153C18.2882 22.6797 18.6848 22.8394 18.9601 22.8943L19.3732 22.977C19.4172 22.977 19.489 22.9604 19.588 22.9274C19.6872 22.8943 19.7588 22.8558 19.8029 22.8117L21.6868 20.8948C22.0836 20.5423 22.5461 20.366 23.075 20.366C23.4496 20.366 23.7469 20.4321 23.9673 20.5643H24.0003L30.379 24.3321C30.8419 24.6188 31.1173 24.9822 31.2055 25.4229Z" fill="white"/>
</svg>
