<svg width="34" height="34" viewBox="0 0 34 34" fill="none" xmlns="http://www.w3.org/2000/svg">
<path fill-rule="evenodd" clip-rule="evenodd" d="M17 0C26.3892 0 34 7.61082 34 17C34 26.3892 26.3892 34 17 34C7.61082 34 0 26.3892 0 17C0 7.61082 7.61082 0 17 0Z" fill="url(#paint0_linear_2_12)"/>
<path d="M24.6514 10.858L22.2308 23.0601C22.2308 23.0601 21.8922 23.9062 20.9618 23.5004L15.3771 19.2185L15.3512 19.2059C16.1055 18.5286 21.9553 13.2692 22.2109 13.0308C22.6067 12.6616 22.361 12.4418 21.9015 12.7207L13.2607 18.2078L9.92709 17.0862C9.92709 17.0862 9.40248 16.8996 9.35201 16.4939C9.30088 16.0875 9.94436 15.8677 9.94436 15.8677L23.5344 10.5366C23.5344 10.5366 24.6514 10.0459 24.6514 10.858V10.858Z" fill="#FEFEFE"/>
<defs>
<linearGradient id="paint0_linear_2_12" x1="4.50434" y1="5.4732" x2="31.4892" y2="25.8971" gradientUnits="userSpaceOnUse">
<stop stop-color="#28AAE0"/>
<stop offset="1" stop-color="#23B7EC"/>
</linearGradient>
</defs>
</svg>
