<svg width="33" height="33" viewBox="0 0 33 33" fill="none" xmlns="http://www.w3.org/2000/svg">
<g clip-path="url(#clip0_393_8051)">
<path d="M16.4999 32.9997C25.6125 32.9997 32.9997 25.6125 32.9997 16.4999C32.9997 7.38724 25.6125 0 16.4999 0C7.38724 0 0 7.38724 0 16.4999C0 25.6125 7.38724 32.9997 16.4999 32.9997Z" fill="#F17D02"/>
<path d="M16.172 16.2801C18.9989 16.2801 21.2982 13.9749 21.2982 11.1399C21.2982 8.30514 18.9989 6 16.172 6C13.345 6 11.0458 8.30514 11.0458 11.1399C11.0458 13.9749 13.345 16.2801 16.172 16.2801ZM16.172 8.56983C17.5855 8.56983 18.735 9.72256 18.735 11.1399C18.735 12.5572 17.5855 13.7101 16.172 13.7101C14.7584 13.7101 13.6088 12.5572 13.6088 11.1399C13.6088 9.72256 14.7584 8.56983 16.172 8.56983Z" fill="white"/>
<path d="M22.9694 16.1377C22.4683 15.6351 21.6581 15.6351 21.1572 16.1377C18.4096 18.8926 13.9369 18.8926 11.188 16.1377C10.6871 15.6351 9.87693 15.6351 9.37583 16.1377C8.87472 16.64 8.87472 17.4523 9.37583 17.9561C10.9701 19.5545 12.991 20.4657 15.0749 20.7031L11.4212 24.3669C10.9203 24.8693 10.9203 25.6814 11.4212 26.1838C11.9224 26.6864 12.7322 26.6864 13.2333 26.1838L16.172 23.2374L19.1107 26.1838C19.3607 26.4344 19.6885 26.5606 20.0167 26.5606C20.3448 26.5606 20.6727 26.4344 20.9226 26.1838C21.4237 25.6813 21.4237 24.8693 20.9226 24.3668L17.2689 20.7031C19.3527 20.4657 21.3738 19.5545 22.968 17.956C23.4691 17.4533 23.4691 16.64 22.9694 16.1377Z" fill="white"/>
</g>
<defs>
<clipPath id="clip0_393_8051">
<rect width="33" height="33" fill="white"/>
</clipPath>
</defs>
</svg>
