<svg width="34" height="34" viewBox="0 0 34 34" fill="none" xmlns="http://www.w3.org/2000/svg">
<path d="M15.3574 0.0507202C11.4117 0.343983 7.81257 1.96644 4.9866 4.72767C1.26941 8.35345 -0.513014 13.4874 0.145873 18.6443C0.968529 25.0922 5.51599 30.4623 11.7621 32.3628C16.5914 33.8329 21.9653 32.9608 26.0595 30.0472C31.0907 26.4633 33.7072 20.5181 32.9303 14.432C32.1076 7.98402 27.5601 2.6139 21.314 0.713413C19.4554 0.145935 17.2884 -0.0940056 15.3574 0.0507202ZM16.618 10.292C17.4635 10.3758 17.8863 10.5091 18.0767 10.7567C18.1262 10.8252 18.2062 10.9928 18.2519 11.1299C18.351 11.4194 18.3548 11.7507 18.2938 14.2263C18.2557 15.7726 18.2786 16.2487 18.4043 16.5914C18.5528 16.9837 18.8803 17.1627 19.1698 17.0142C19.4326 16.8771 20.0458 16.203 20.4457 15.605C21.3712 14.2339 21.9348 13.1713 22.6128 11.5298C22.7499 11.2061 22.9327 10.9928 23.1231 10.9433C23.1993 10.9204 24.2771 10.9014 25.6025 10.8976L27.9448 10.89L28.1428 10.9738C28.398 11.088 28.497 11.2366 28.497 11.507C28.497 12.0211 27.96 13.0761 27.0384 14.3672C26.9127 14.5462 26.4366 15.1785 25.9834 15.7764C24.9817 17.0942 24.7646 17.4027 24.6123 17.7226C24.4219 18.1263 24.4676 18.4577 24.7684 18.8499C24.856 18.9604 25.2978 19.406 25.7511 19.8402C27.0193 21.0551 27.5944 21.695 28.0629 22.3957C28.398 22.9023 28.5275 23.2755 28.4742 23.5954C28.4475 23.7706 28.2723 23.9801 28.0743 24.0829C27.8382 24.201 27.4763 24.2239 25.4844 24.2505L23.5992 24.2772L23.2945 24.1744C22.5176 23.9154 21.9996 23.485 20.8227 22.1215C20.1715 21.3674 19.6878 20.998 19.3526 20.9942C19.0441 20.9942 18.6518 21.4055 18.4843 21.9159C18.37 22.2586 18.3281 22.5214 18.2938 23.1156C18.2519 23.8163 18.1681 23.9801 17.7378 24.1591C17.5816 24.2277 15.6392 24.2505 15.1251 24.1972C14.0929 24.0829 13.137 23.7592 12.1886 23.1994C10.8137 22.3919 9.97205 21.6683 9.06941 20.5181C7.50027 18.5148 6.43005 16.8085 5.13132 14.2339C4.62859 13.2323 4.03826 11.9373 3.94304 11.6288C3.84783 11.3089 3.98494 11.0461 4.29724 10.9471C4.40388 10.9128 4.99802 10.8938 6.36912 10.8747L8.29246 10.8557L8.51716 10.9395C8.87136 11.0766 9.0199 11.2518 9.25984 11.8345C9.4655 12.3258 10.5738 14.55 10.9204 15.1708C11.2746 15.7993 11.6516 16.3248 11.9754 16.6371C12.3753 17.0294 12.5543 17.1246 12.8361 17.1018C13.076 17.0789 13.1408 17.0256 13.2893 16.7019C13.6511 15.9211 13.7083 13.2818 13.3845 12.2458C13.1979 11.6555 12.9199 11.4308 12.1506 11.267C12.0173 11.2366 12.0173 11.1909 12.1391 11.0119C12.4362 10.5853 12.9656 10.3796 13.9749 10.2958C14.5271 10.2501 16.1648 10.2463 16.618 10.292Z" fill="#45668E"/>
</svg>
