<svg width="39" height="39" viewBox="0 0 39 39" fill="none" xmlns="http://www.w3.org/2000/svg">
<g clip-path="url(#clip0_1_9)">
<rect width="39" height="39" rx="10" fill="black" fill-opacity="0"/>
<path d="M25.6333 10.3C24.82 10.3 24.04 10.6231 23.4649 11.1982C22.8898 11.7733 22.5667 12.5533 22.5667 13.3667C22.568 13.5822 22.5921 13.797 22.6385 14.0076L15.6757 17.489C15.3885 17.1584 15.0338 16.8931 14.6355 16.711C14.2373 16.5289 13.8046 16.4342 13.3667 16.4333C12.5533 16.4333 11.7733 16.7564 11.1982 17.3315C10.6231 17.9067 10.3 18.6867 10.3 19.5C10.3 20.3133 10.6231 21.0934 11.1982 21.6685C11.7733 22.2436 12.5533 22.5667 13.3667 22.5667C13.8047 22.5662 14.2376 22.4718 14.6362 22.29C15.0347 22.1082 15.3897 21.843 15.6771 21.5125L22.6355 24.9925C22.5901 25.2031 22.567 25.4179 22.5667 25.6333C22.5667 26.4467 22.8898 27.2267 23.4649 27.8018C24.04 28.3769 24.82 28.7 25.6333 28.7C26.4467 28.7 27.2267 28.3769 27.8018 27.8018C28.3769 27.2267 28.7 26.4467 28.7 25.6333C28.7 24.82 28.3769 24.04 27.8018 23.4649C27.2267 22.8898 26.4467 22.5667 25.6333 22.5667C25.1953 22.5672 24.7624 22.6615 24.3638 22.8433C23.9653 23.0252 23.6103 23.2903 23.3229 23.6208L16.3645 20.1409C16.4099 19.9303 16.4329 19.7155 16.4333 19.5C16.4319 19.2849 16.4078 19.0706 16.3615 18.8606L23.3243 15.3792C23.6117 15.7095 23.9664 15.9745 24.3647 16.1564C24.7629 16.3382 25.1955 16.4326 25.6333 16.4333C26.4467 16.4333 27.2267 16.1102 27.8018 15.5351C28.3769 14.96 28.7 14.18 28.7 13.3667C28.7 12.5533 28.3769 11.7733 27.8018 11.1982C27.2267 10.6231 26.4467 10.3 25.6333 10.3Z" fill="white"/>
</g>
<defs>
<clipPath id="clip0_1_9">
<rect width="39" height="39" fill="white"/>
</clipPath>
</defs>
</svg>
