<svg width="22" height="22" viewBox="0 0 22 22" fill="none" xmlns="http://www.w3.org/2000/svg">
<path d="M20.6334 10.5539C20.6351 10.5539 20.6365 10.5539 20.6382 10.5539C20.761 10.5539 20.878 10.5024 20.9612 10.4122C21.0457 10.3207 21.0875 10.1979 21.0765 10.0738C20.6347 5.21491 16.7878 1.36667 11.9284 0.924025C11.8052 0.914345 11.6811 0.954385 11.5896 1.03931C11.4981 1.12379 11.4471 1.24303 11.4484 1.36755C11.5249 7.82498 12.3768 10.4637 20.6334 10.5539ZM20.6334 11.4462C12.3768 11.5364 11.5254 14.1751 11.4488 20.6325C11.4475 20.757 11.4985 20.8763 11.5901 20.9607C11.6719 21.036 11.7788 21.0778 11.8888 21.0778C11.902 21.0778 11.9157 21.0773 11.9289 21.076C16.7882 20.6334 20.6351 16.7856 21.0765 11.9262C21.0875 11.8021 21.0461 11.6794 20.9612 11.5879C20.8763 11.4963 20.7579 11.451 20.6334 11.4462ZM10.0421 0.926225C5.19817 1.38163 1.36357 5.22899 0.924015 10.0747C0.913015 10.1988 0.954375 10.3215 1.03929 10.4131C1.12245 10.5033 1.23993 10.5543 1.36225 10.5543C1.36401 10.5543 1.36577 10.5543 1.36753 10.5543C9.59685 10.4597 10.4465 7.82235 10.5239 1.36931C10.5253 1.24479 10.4738 1.12511 10.3823 1.04063C10.2899 0.956145 10.1662 0.914785 10.0421 0.926225ZM1.36709 11.4457C1.23025 11.4303 1.12289 11.4955 1.03885 11.587C0.954375 11.6785 0.912575 11.8013 0.923575 11.9253C1.36313 16.7711 5.19817 20.6184 10.0421 21.0738C10.0558 21.0751 10.0699 21.0756 10.0835 21.0756C10.1935 21.0756 10.3 21.0342 10.3818 20.959C10.4733 20.8745 10.5248 20.7548 10.5235 20.6303C10.4461 14.1777 9.59686 11.5403 1.36709 11.4457Z" fill="#E4E4E4" fill-opacity="0.8"/>
</svg>
